<?xml version="1.0" encoding="UTF-8"?>
<svg version="1.1" xmlns="http://www.w3.org/2000/svg" width="256" height="256">
<path d="M0 0 C4.16424963 0.0078252 8.32160203 0.10049239 12.48327637 0.24334717 C14.63267375 0.31499375 16.7820699 0.36863353 18.93200684 0.42132568 C20.31355056 0.46387761 21.69506308 0.50745792 23.07653809 0.55218506 C24.30710937 0.5899707 25.53768066 0.62775635 26.80554199 0.66668701 C29.77438307 0.98021968 31.56406196 1.26781955 33.97497559 3.00140381 C35.29910589 8.38804908 35.09528131 13.92068047 35.03747559 19.43890381 C35.03296387 20.2658374 35.02845215 21.092771 35.02380371 21.94476318 C35.0121337 23.96367527 34.99420277 25.98254955 34.97497559 28.00140381 C35.63497559 28.00140381 36.29497559 28.00140381 36.97497559 28.00140381 C36.97497559 28.66140381 36.97497559 29.32140381 36.97497559 30.00140381 C38.28853027 30.06198975 39.60208496 30.12257568 40.95544434 30.18499756 C42.691131 30.26943637 44.42680757 30.35408269 46.16247559 30.43890381 C47.02679199 30.47822021 47.8911084 30.51753662 48.78161621 30.55804443 C60.0355522 31.11858531 60.0355522 31.11858531 63.08190918 33.98138428 C65.67240131 38.11401101 65.5007596 41.32058441 65.40075684 46.09906006 C65.39582466 47.40598061 65.39582466 47.40598061 65.39079285 48.73930359 C65.37508097 51.51467998 65.33103525 54.28884012 65.28747559 57.06390381 C65.27598067 58.93433669 65.26619657 60.80478092 65.25817871 62.67523193 C65.2447542 64.46235362 65.22983111 66.24946481 65.21325684 68.03656006 C65.2058699 68.87518082 65.19848297 69.71380157 65.19087219 70.57783508 C65.17803696 71.36222458 65.16520172 72.14661407 65.15197754 72.95477295 C65.13721123 73.9847213 65.13721123 73.9847213 65.12214661 75.03547668 C64.96631056 77.11715224 64.53669131 78.9942645 63.97497559 81.00140381 C63.31497559 81.00140381 62.65497559 81.00140381 61.97497559 81.00140381 C61.64497559 81.99140381 61.31497559 82.98140381 60.97497559 84.00140381 C52.55670645 85.70022569 44.55574613 86.25052295 35.97497559 86.00140381 C35.93759277 87.19636475 35.90020996 88.39132568 35.86169434 89.62249756 C35.22367832 106.2633537 35.22367832 106.2633537 31.97497559 113.00140381 C28.57565572 115.33190679 24.72646716 115.69886041 20.72497559 116.37640381 C14.84001615 117.41793523 9.0257635 118.62379165 3.22497559 120.06390381 C2.55820801 120.22616455 1.89144043 120.38842529 1.20446777 120.55560303 C-2.0866825 121.38811022 -5.06666817 122.32051958 -8.02502441 124.00140381 C-7.23950265 125.96221005 -6.44640319 127.91998197 -5.65002441 129.87640381 C-5.20916504 130.96695068 -4.76830566 132.05749756 -4.31408691 133.18109131 C-3.19451104 136.06469743 -3.19451104 136.06469743 -1.02502441 138.00140381 C-0.43721191 139.11515381 -0.43721191 139.11515381 0.16247559 140.25140381 C2.19214167 143.33089717 4.43505886 145.26176223 7.26403809 147.58343506 C9.29909575 149.27002395 11.14123059 151.09974233 12.97497559 153.00140381 C13.63497559 153.66140381 14.29497559 154.32140381 14.97497559 155.00140381 C15.96497559 155.00140381 16.95497559 155.00140381 17.97497559 155.00140381 C18.42872559 154.54765381 18.88247559 154.09390381 19.34997559 153.62640381 C22.69940622 150.27697317 26.27536694 149.84162215 30.84997559 149.68890381 C36.65109406 149.81839306 40.63567379 151.11696625 45.22497559 154.81390381 C49.50188036 160.16003477 50.53321796 164.56989817 50.32263184 171.31781006 C49.62959496 176.66743179 47.06677002 180.21247202 43.09997559 183.81390381 C37.57341652 187.68249515 33.64606986 188.26925339 27.12341309 187.38812256 C26.41442871 187.26050537 25.70544434 187.13288818 24.97497559 187.00140381 C24.3007959 186.91374756 23.62661621 186.82609131 22.93200684 186.73577881 C20.12732982 185.68332516 19.04844268 183.95133208 17.28747559 181.56390381 C16.6854834 180.76081787 16.08349121 179.95773193 15.46325684 179.13031006 C12.72420181 175.21223922 12.86899444 172.65933031 12.91247559 167.87640381 C12.92149902 166.59507568 12.93052246 165.31374756 12.93981934 163.99359131 C12.9514209 163.00616943 12.96302246 162.01874756 12.97497559 161.00140381 C11.78388184 160.79257568 11.78388184 160.79257568 10.56872559 160.57952881 C7.57455085 159.91215251 6.9335381 159.28639341 4.97497559 157.00140381 C4.19122559 156.21765381 3.40747559 155.43390381 2.59997559 154.62640381 C1.73372559 153.76015381 0.86747559 152.89390381 -0.02502441 152.00140381 C-0.89127441 151.15577881 -1.75752441 150.31015381 -2.65002441 149.43890381 C-5.25002848 146.77047858 -7.39678489 144.29714783 -9.02502441 140.93890381 C-9.90546084 138.95813619 -9.90546084 138.95813619 -11.46252441 137.68890381 C-13.8374908 135.12394011 -14.84191762 132.25494748 -16.02502441 129.00140381 C-15.69502441 128.34140381 -15.36502441 127.68140381 -15.02502441 127.00140381 C-17.00994083 127.26816585 -17.00994083 127.26816585 -19.02502441 128.00140381 C-19.35502441 128.99140381 -19.68502441 129.98140381 -20.02502441 131.00140381 C-23.08752441 132.18890381 -23.08752441 132.18890381 -26.02502441 133.00140381 C-26.02502441 133.66140381 -26.02502441 134.32140381 -26.02502441 135.00140381 C-26.74689941 135.24890381 -27.46877441 135.49640381 -28.21252441 135.75140381 C-31.27215708 137.11124055 -33.49239821 138.83058135 -36.02502441 141.00140381 C-36.68502441 140.67140381 -37.34502441 140.34140381 -38.02502441 140.00140381 C-37.55064941 140.53765381 -37.07627441 141.07390381 -36.58752441 141.62640381 C-32.93620795 147.17640483 -33.43124516 154.54626308 -34.52111816 160.88812256 C-35.84463009 166.60838596 -35.84463009 166.60838596 -37.02502441 169.00140381 C-39.51330566 170.19671631 -39.51330566 170.19671631 -42.02502441 171.00140381 C-44.07274055 172.81197721 -44.07274055 172.81197721 -44.86096191 174.86468506 C-47.48942376 179.68941201 -53.01207966 183.90276097 -58.14611816 185.77484131 C-62.88958485 186.481112 -68.34277414 186.11853821 -73.02502441 185.00140381 C-75.02502441 183.00140381 -75.02502441 183.00140381 -75.15002441 180.37640381 C-75.10877441 179.59265381 -75.06752441 178.80890381 -75.02502441 178.00140381 C-71.73806208 177.20187243 -70.31479249 176.90481445 -67.02502441 178.00140381 C-67.02502441 178.66140381 -67.02502441 179.32140381 -67.02502441 180.00140381 C-63.72502441 180.33140381 -60.42502441 180.66140381 -57.02502441 181.00140381 C-56.69502441 180.34140381 -56.36502441 179.68140381 -56.02502441 179.00140381 C-55.17939941 178.17640381 -54.33377441 177.35140381 -53.46252441 176.50140381 C-50.79232437 174.34467367 -50.79232437 174.34467367 -51.02502441 172.00140381 C-50.25158691 171.38265381 -50.25158691 171.38265381 -49.46252441 170.75140381 C-48.98814941 170.17390381 -48.51377441 169.59640381 -48.02502441 169.00140381 C-48.36060261 165.98791186 -48.36060261 165.98791186 -49.02502441 163.00140381 C-48.02502441 160.00140381 -48.02502441 160.00140381 -46.02502441 158.00140381 C-45.36502441 157.67140381 -44.70502441 157.34140381 -44.02502441 157.00140381 C-43.3316465 153.96143901 -43.3316465 153.96143901 -42.90002441 150.43890381 C-42.73244629 149.24136475 -42.56486816 148.04382568 -42.39221191 146.80999756 C-42.27104004 145.88316162 -42.14986816 144.95632568 -42.02502441 144.00140381 C-42.68502441 143.67140381 -43.34502441 143.34140381 -44.02502441 143.00140381 C-44.68502441 142.67140381 -45.34502441 142.34140381 -46.02502441 142.00140381 C-46.02502441 141.34140381 -46.02502441 140.68140381 -46.02502441 140.00140381 C-48.13112301 140.25677953 -50.23491196 140.53125754 -52.33752441 140.81390381 C-53.50928223 140.96472412 -54.68104004 141.11554443 -55.88830566 141.27093506 C-59.15490219 142.03164932 -59.89614629 142.59762551 -62.02502441 145.00140381 C-66.08587884 145.79907164 -69.90276713 146.00140381 -74.02502441 146.00140381 C-74.52002441 146.99140381 -74.52002441 146.99140381 -75.02502441 148.00140381 C-75.82939941 148.62015381 -76.63377441 149.23890381 -77.46252441 149.87640381 C-80.5440926 152.4318506 -81.79011271 153.93334187 -82.24377441 157.92718506 C-82.3945826 160.36623959 -82.3945826 160.36623959 -82.02502441 164.00140381 C-80.52516832 165.66850727 -80.52516832 165.66850727 -79.02502441 167.00140381 C-79.33752441 169.68890381 -79.33752441 169.68890381 -80.02502441 172.00140381 C-82.40002441 172.12640381 -82.40002441 172.12640381 -85.02502441 172.00140381 C-87.85956381 169.16686442 -87.32502129 167.20239093 -87.33752441 163.25140381 C-87.35428223 162.03968506 -87.37104004 160.82796631 -87.38830566 159.57952881 C-86.99525116 155.70815325 -85.95903878 153.34633685 -84.02502441 150.00140381 C-83.28252441 148.60921631 -83.28252441 148.60921631 -82.52502441 147.18890381 C-81.02502441 145.00140381 -81.02502441 145.00140381 -78.02502441 144.00140381 C-77.31346191 143.22796631 -77.31346191 143.22796631 -76.58752441 142.43890381 C-75.02502441 141.00140381 -75.02502441 141.00140381 -71.02502441 141.00140381 C-71.35502441 139.35140381 -71.68502441 137.70140381 -72.02502441 136.00140381 C-61.62742808 131.57279796 -53.75316675 131.39560555 -43.02502441 135.00140381 C-42.03502441 135.33140381 -41.04502441 135.66140381 -40.02502441 136.00140381 C-39.96314941 135.44452881 -39.90127441 134.88765381 -39.83752441 134.31390381 C-38.16912092 129.5653708 -34.3696531 127.10364349 -30.02502441 125.00140381 C-29.38564941 124.32077881 -28.74627441 123.64015381 -28.08752441 122.93890381 C-25.68651091 120.68340628 -24.21152161 120.50453495 -21.02502441 120.00140381 C-20.36502441 119.34140381 -19.70502441 118.68140381 -19.02502441 118.00140381 C-19.20951752 115.916959 -19.20951752 115.916959 -19.86096191 113.57171631 C-21.11218026 107.99043898 -21.4577568 102.58034305 -21.65002441 96.87640381 C-21.68869629 95.91991943 -21.72736816 94.96343506 -21.76721191 93.97796631 C-21.86022569 91.65262182 -21.94606213 89.32726046 -22.02502441 87.00140381 C-22.6903418 86.99205811 -23.35565918 86.9827124 -24.0411377 86.9730835 C-27.0781646 86.91914361 -30.1136902 86.83554319 -33.15002441 86.75140381 C-34.19674316 86.73722412 -35.24346191 86.72304443 -36.32189941 86.70843506 C-37.34025879 86.6762085 -38.35861816 86.64398193 -39.40783691 86.61077881 C-40.33999023 86.58983154 -41.27214355 86.56888428 -42.23254395 86.54730225 C-46.12299606 85.78676273 -48.13071843 84.74006243 -51.02502441 82.00140381 C-51.88467631 78.8770375 -51.79544195 75.85686533 -51.71643066 72.63421631 C-51.715056 71.72187225 -51.71368134 70.8095282 -51.71226501 69.86953735 C-51.70321041 67.94120572 -51.67958853 66.01289524 -51.64245605 64.0848999 C-51.58784204 61.14351026 -51.58092601 58.2049653 -51.58166504 55.26312256 C-51.56691124 53.38679614 -51.54942265 51.51048883 -51.52893066 49.63421631 C-51.52392296 48.32144211 -51.52392296 48.32144211 -51.51881409 46.98214722 C-51.4018726 41.92612779 -50.80308269 38.39014708 -48.02502441 34.00140381 C-44.38208962 30.59349706 -40.77469615 29.94267428 -35.91564941 29.68499756 C-35.16154785 29.64310303 -34.40744629 29.6012085 -33.63049316 29.55804443 C-32.46453613 29.49906982 -32.46453613 29.49906982 -31.27502441 29.43890381 C-30.48225098 29.39572021 -29.68947754 29.35253662 -28.87268066 29.30804443 C-26.92364627 29.20237389 -24.97435693 29.10142415 -23.02502441 29.00140381 C-23.02502441 28.34140381 -23.02502441 27.68140381 -23.02502441 27.00140381 C-22.36502441 27.00140381 -21.70502441 27.00140381 -21.02502441 27.00140381 C-21.0512085 26.42696533 -21.07739258 25.85252686 -21.10437012 25.26068115 C-21.20894241 22.63287209 -21.27353386 20.0055015 -21.33752441 17.37640381 C-21.37941895 16.472771 -21.42131348 15.56913818 -21.46447754 14.63812256 C-21.54426222 10.26592216 -21.2251623 7.43780898 -19.38049316 3.41546631 C-14.56456429 -1.35473369 -6.23770572 0.00432417 0 0 Z " fill="#017586" transform="translate(139.0250244140625,33.99859619140625)"/>
<path d="M0 0 C0.515625 0.66 1.03125 1.32 1.5625 2 C2.366875 2.99 3.17125 3.98 4 5 C4.48597656 5.62777344 4.97195312 6.25554688 5.47265625 6.90234375 C9.96058451 12.43002844 14.78226859 15.62947513 21 19 C33.38146275 25.73865608 44.64097469 32.83747507 49 47 C50.17232143 57.65535714 50.17232143 57.65535714 48 62 C39.09444697 61.83508235 33.65611607 57.53042 27.38671875 51.4765625 C21.72503555 45.47981762 17.15514718 39.11328176 13 32 C17.01560959 40.88158356 21.91348312 48.4028802 28 56 C28.5259375 56.69222656 29.051875 57.38445312 29.59375 58.09765625 C33.34091646 62.8336583 37.86246028 65.8832259 43 69 C41 70 41 70 38.3125 69.21484375 C24.07875138 63.72612229 12.24390747 56.92905623 5 43 C1.06450087 33.04987013 -1.18576501 23.58989733 -1.125 12.875 C-1.12886719 12.18535156 -1.13273437 11.49570313 -1.13671875 10.78515625 C-1.12960393 7.06410302 -0.88672323 3.61726778 0 0 Z " fill="#0F0E3F" transform="translate(126,53)"/>
<path d="M0 0 C4.18269411 3.36939248 6.64767683 7.18990436 7.32421875 12.5859375 C7.57887228 18.9961816 6.89395598 22.87637371 3 28 C-0.46255166 31.64735076 -4.02243545 34.02400695 -9 35 C-12.04675489 34.89897322 -15.00117937 34.53978771 -18 34 C-18.67417969 33.91234375 -19.34835938 33.8246875 -20.04296875 33.734375 C-22.84764577 32.68192135 -23.92653291 30.94992827 -25.6875 28.5625 C-26.59048828 27.35787109 -26.59048828 27.35787109 -27.51171875 26.12890625 C-31.01680552 21.11506822 -30.74282747 15.94976229 -30 10 C-27.99755728 4.67207205 -25.52815023 0.99917515 -20.75 -2.125 C-13.18115624 -3.89106354 -6.84429832 -3.83280706 0 0 Z " fill="#009A9D" transform="translate(182,187)"/>
<path d="M0 0 C2.19755065 2.19225535 4.08894291 4.55937288 6 7 C6.66 7.66 7.32 8.32 8 9 C9.93759089 17.13788175 9.75655905 26.38431374 6 34 C3.51171875 35.1953125 3.51171875 35.1953125 1 36 C-1.04771613 37.8105734 -1.04771613 37.8105734 -1.8359375 39.86328125 C-4.46439935 44.6880082 -9.98705525 48.90135716 -15.12109375 50.7734375 C-19.86456043 51.47970819 -25.31774973 51.1171344 -30 50 C-32 48 -32 48 -32.125 45.375 C-32.063125 44.199375 -32.063125 44.199375 -32 43 C-28.71303767 42.20046862 -27.28976808 41.90341064 -24 43 C-24 43.66 -24 44.32 -24 45 C-20.7 45.33 -17.4 45.66 -14 46 C-13.67 45.34 -13.34 44.68 -13 44 C-12.154375 43.175 -11.30875 42.35 -10.4375 41.5 C-7.76729995 39.34326986 -7.76729995 39.34326986 -8 37 C-7.484375 36.5875 -6.96875 36.175 -6.4375 35.75 C-5.963125 35.1725 -5.48875 34.595 -5 34 C-5.3355782 30.98650805 -5.3355782 30.98650805 -6 28 C-5 25 -5 25 -3 23 C-2.34 22.67 -1.68 22.34 -1 22 C-0.30662208 18.9600352 -0.30662208 18.9600352 0.125 15.4375 C0.29257813 14.23996094 0.46015625 13.04242188 0.6328125 11.80859375 C0.81457031 10.41833984 0.81457031 10.41833984 1 9 C0.34 8.67 -0.32 8.34 -1 8 C-1.66 7.67 -2.32 7.34 -3 7 C-3 6.34 -3 5.68 -3 5 C-5.1060986 5.25537572 -7.20988754 5.52985374 -9.3125 5.8125 C-10.48425781 5.96332031 -11.65601563 6.11414063 -12.86328125 6.26953125 C-16.12987777 7.03024551 -16.87112188 7.5962217 -19 10 C-23.06085442 10.79766783 -26.87774272 11 -31 11 C-31.33 11.66 -31.66 12.32 -32 13 C-32.804375 13.61875 -33.60875 14.2375 -34.4375 14.875 C-37.51906819 17.43044679 -38.7650883 18.93193807 -39.21875 22.92578125 C-39.36955818 25.36483578 -39.36955818 25.36483578 -39 29 C-37.50014391 30.66710346 -37.50014391 30.66710346 -36 32 C-36.3125 34.6875 -36.3125 34.6875 -37 37 C-39.375 37.125 -39.375 37.125 -42 37 C-44.83453939 34.16546061 -44.29999688 32.20098712 -44.3125 28.25 C-44.32925781 27.03828125 -44.34601562 25.8265625 -44.36328125 24.578125 C-43.97022674 20.70674944 -42.93401437 18.34493304 -41 15 C-40.505 14.071875 -40.01 13.14375 -39.5 12.1875 C-38 10 -38 10 -35 9 C-34.2884375 8.2265625 -34.2884375 8.2265625 -33.5625 7.4375 C-32 6 -32 6 -28 6 C-28.33 4.35 -28.66 2.7 -29 1 C-27.75108386 0.51801537 -26.50081192 0.03954323 -25.25 -0.4375 C-24.20585938 -0.83775391 -24.20585938 -0.83775391 -23.140625 -1.24609375 C-15.89509174 -3.79789652 -6.91821752 -3.53955315 0 0 Z " fill="#0B0B38" transform="translate(96,169)"/>
<path d="M0 0 C1.32 0.33 2.64 0.66 4 1 C3.25 6.75 3.25 6.75 1 9 C0.236875 9.78375 -0.52625 10.5675 -1.3125 11.375 C-6.38796676 16.33243265 -9.70940929 18.92216451 -17 19 C-25.34666667 18.65333333 -25.34666667 18.65333333 -28 16 C-28.125 13.375 -28.125 13.375 -28 11 C-24.71303767 10.20046862 -23.28976808 9.90341064 -20 11 C-20 11.66 -20 12.32 -20 13 C-16.7 13.33 -13.4 13.66 -10 14 C-9.67 13.34 -9.34 12.68 -9 12 C-8.154375 11.175 -7.30875 10.35 -6.4375 9.5 C-3.76729995 7.34326986 -3.76729995 7.34326986 -4 5 C-3.02149805 3.97895449 -2.02019573 2.9793879 -1 2 C-0.67 1.34 -0.34 0.68 0 0 Z " fill="#018E8E" transform="translate(92,201)"/>
<path d="M0 0 C1.1446875 0.0928125 1.1446875 0.0928125 2.3125 0.1875 C2.3125 1.5075 2.3125 2.8275 2.3125 4.1875 C1.673125 4.31125 1.03375 4.435 0.375 4.5625 C-0.305625 4.76875 -0.98625 4.975 -1.6875 5.1875 C-2.0175 5.8475 -2.3475 6.5075 -2.6875 7.1875 C-3.491875 7.80625 -4.29625 8.425 -5.125 9.0625 C-8.20656819 11.61794679 -9.4525883 13.11943807 -9.90625 17.11328125 C-10.05705818 19.55233578 -10.05705818 19.55233578 -9.6875 23.1875 C-8.18764391 24.85460346 -8.18764391 24.85460346 -6.6875 26.1875 C-7 28.875 -7 28.875 -7.6875 31.1875 C-10.0625 31.3125 -10.0625 31.3125 -12.6875 31.1875 C-15.52203939 28.35296061 -14.98749688 26.38848712 -15 22.4375 C-15.01675781 21.22578125 -15.03351562 20.0140625 -15.05078125 18.765625 C-14.65772674 14.89424944 -13.62151437 12.53243304 -11.6875 9.1875 C-11.1925 8.259375 -10.6975 7.33125 -10.1875 6.375 C-8.6875 4.1875 -8.6875 4.1875 -5.6875 3.1875 C-5.23375 2.671875 -4.78 2.15625 -4.3125 1.625 C-2.6875 0.1875 -2.6875 0.1875 0 0 Z " fill="#009091" transform="translate(66.6875,174.8125)"/>
<path d="M0 0 C3.375 0.9375 3.375 0.9375 5.375 3.9375 C5.69662076 7.0250593 5.86224515 9.07765561 4.3125 11.8125 C1.2680714 13.58023274 -1.1881012 13.30573916 -4.625 12.9375 C-6.5625 11.8125 -6.5625 11.8125 -7.625 9.9375 C-8.16352618 6.32168138 -8.04736225 4.59638511 -6.0625 1.5 C-3.625 -0.0625 -3.625 -0.0625 0 0 Z " fill="#0C0E3D" transform="translate(171.625,196.0625)"/>
<path d="M0 0 C1.32 0.33 2.64 0.66 4 1 C3.15686966 7.46399928 0.5324332 9.4675668 -4 14 C-4.556875 14.598125 -5.11375 15.19625 -5.6875 15.8125 C-7 17 -7 17 -9 17 C-8.49303621 12.56406686 -6.82825762 10.37566232 -4 7 C-4 6.34 -4 5.68 -4 5 C-3.02149805 3.97895449 -2.02019573 2.9793879 -1 2 C-0.67 1.34 -0.34 0.68 0 0 Z " fill="#008686" transform="translate(92,201)"/>
<path d="M0 0 C1.98 0 3.96 0 6 0 C6.93065133 2.60582371 7.14917407 3.64198224 6.0625 6.25 C5.5365625 7.11625 5.5365625 7.11625 5 8 C3.35 7.67 1.7 7.34 0 7 C-1.125 2.25 -1.125 2.25 0 0 Z " fill="#090731" transform="translate(65,211)"/>
<path d="M0 0 C1.32 0.99 2.64 1.98 4 3 C3.67 4.65 3.34 6.3 3 8 C0.625 8.125 0.625 8.125 -2 8 C-2.66 7.34 -3.32 6.68 -4 6 C-4 4.68 -4 3.36 -4 2 C-2.68 1.34 -1.36 0.68 0 0 Z " fill="#090A34" transform="translate(56,198)"/>
<path d="M0 0 C2.7210894 2.54195813 4.86407968 5.37528629 7.0625 8.375 C7.75472656 9.31085938 8.44695312 10.24671875 9.16015625 11.2109375 C10.84857347 13.77044895 11.98847654 16.11742019 13 19 C12.01 19 11.02 19 10 19 C8.30373621 16.60737529 6.82717979 14.28428796 5.375 11.75 C4.96765625 11.06808594 4.5603125 10.38617188 4.140625 9.68359375 C2.24844421 6.45686161 0.78558523 3.68503496 0 0 Z " fill="#08747F" transform="translate(138,84)"/>
<path d="M0 0 C0.99 0.33 1.98 0.66 3 1 C3 4.3 3 7.6 3 11 C2.01 11.33 1.02 11.66 0 12 C-1 11 -1 11 -1.1328125 9.00390625 C-1.13023438 8.19824219 -1.12765625 7.39257812 -1.125 6.5625 C-1.12757812 5.75941406 -1.13015625 4.95632812 -1.1328125 4.12890625 C-1 2 -1 2 0 0 Z " fill="#009D9F" transform="translate(53,188)"/>
<path d="M0 0 C0.99 0.99 1.98 1.98 3 3 C2.04882866 4.1725131 1.08882991 5.33787015 0.125 6.5 C-0.40867187 7.1496875 -0.94234375 7.799375 -1.4921875 8.46875 C-1.98976563 8.9740625 -2.48734375 9.479375 -3 10 C-3.66 10 -4.32 10 -5 10 C-4.49701212 5.59885603 -2.91227269 3.28804981 0 0 Z " fill="#009B9D" transform="translate(88,208)"/>
<path d="M0 0 C2.14720899 2.14720899 2.5434221 3.07790143 3 6 C2.67 6.66 2.34 7.32 2 8 C0.35 7.67 -1.3 7.34 -3 7 C-2.34 6.67 -1.68 6.34 -1 6 C-1.0309375 4.7934375 -1.0309375 4.7934375 -1.0625 3.5625 C-1 1 -1 1 0 0 Z " fill="#06173E" transform="translate(152,187)"/>
<path d="M0 0 C1.32 0.33 2.64 0.66 4 1 C3.67 2.32 3.34 3.64 3 5 C1.35 5 -0.3 5 -2 5 C-1.34 3.35 -0.68 1.7 0 0 Z " fill="#009796" transform="translate(92,201)"/>
<path d="M0 0 C2.64 0 5.28 0 8 0 C6.68 0.33 5.36 0.66 4 1 C4 1.66 4 2.32 4 3 C2.68 3.33 1.36 3.66 0 4 C-0.33 3.34 -0.66 2.68 -1 2 C-0.67 1.34 -0.34 0.68 0 0 Z " fill="#028283" transform="translate(71,215)"/>
<path d="M0 0 C3.02990095 1.71967351 5.76327296 3.29238306 8 6 C8 6.66 8 7.32 8 8 C4.27382578 6.75794193 2.60708543 4.8889325 0 2 C0 1.34 0 0.68 0 0 Z " fill="#002133" transform="translate(140,177)"/>
<path d="M0 0 C3.27286682 2.7819368 4.96427697 6.27954067 7 10 C6.01 10.495 6.01 10.495 5 11 C4.16151196 9.54462432 3.32936066 8.08559627 2.5 6.625 C1.80390625 5.40683594 1.80390625 5.40683594 1.09375 4.1640625 C0 2 0 2 0 0 Z " fill="#108187" transform="translate(138,84)"/>
<path d="M0 0 C0.33 0 0.66 0 1 0 C1 2.31 1 4.62 1 7 C0.01 7.33 -0.98 7.66 -2 8 C-2.33 7.01 -2.66 6.02 -3 5 C-2.67 4.34 -2.34 3.68 -2 3 C-1.34 3 -0.68 3 0 3 C0 2.01 0 1.02 0 0 Z " fill="#019392" transform="translate(55,192)"/>
<path d="" fill="#000000" transform="translate(0,0)"/>
<path d="" fill="#000000" transform="translate(0,0)"/>
<path d="" fill="#000000" transform="translate(0,0)"/>
<path d="" fill="#000000" transform="translate(0,0)"/>
<path d="" fill="#000000" transform="translate(0,0)"/>
<path d="" fill="#000000" transform="translate(0,0)"/>
<path d="" fill="#000000" transform="translate(0,0)"/>
<path d="" fill="#000000" transform="translate(0,0)"/>
<path d="" fill="#000000" transform="translate(0,0)"/>
<path d="" fill="#000000" transform="translate(0,0)"/>
<path d="" fill="#000000" transform="translate(0,0)"/>
<path d="" fill="#000000" transform="translate(0,0)"/>
<path d="" fill="#000000" transform="translate(0,0)"/>
<path d="" fill="#000000" transform="translate(0,0)"/>
<path d="" fill="#000000" transform="translate(0,0)"/>
<path d="" fill="#000000" transform="translate(0,0)"/>
<path d="" fill="#000000" transform="translate(0,0)"/>
<path d="" fill="#000000" transform="translate(0,0)"/>
<path d="" fill="#000000" transform="translate(0,0)"/>
<path d="" fill="#000000" transform="translate(0,0)"/>
<path d="" fill="#000000" transform="translate(0,0)"/>
<path d="" fill="#000000" transform="translate(0,0)"/>
<path d="" fill="#000000" transform="translate(0,0)"/>
<path d="" fill="#000000" transform="translate(0,0)"/>
<path d="" fill="#000000" transform="translate(0,0)"/>
<path d="" fill="#000000" transform="translate(0,0)"/>
<path d="" fill="#000000" transform="translate(0,0)"/>
<path d="" fill="#000000" transform="translate(0,0)"/>
<path d="" fill="#000000" transform="translate(0,0)"/>
<path d="" fill="#000000" transform="translate(0,0)"/>
<path d="" fill="#000000" transform="translate(0,0)"/>
<path d="" fill="#000000" transform="translate(0,0)"/>
<path d="" fill="#000000" transform="translate(0,0)"/>
<path d="" fill="#000000" transform="translate(0,0)"/>
<path d="" fill="#000000" transform="translate(0,0)"/>
<path d="" fill="#000000" transform="translate(0,0)"/>
<path d="" fill="#000000" transform="translate(0,0)"/>
<path d="" fill="#000000" transform="translate(0,0)"/>
<path d="" fill="#000000" transform="translate(0,0)"/>
<path d="" fill="#000000" transform="translate(0,0)"/>
<path d="" fill="#000000" transform="translate(0,0)"/>
<path d="" fill="#000000" transform="translate(0,0)"/>
<path d="" fill="#000000" transform="translate(0,0)"/>
<path d="" fill="#000000" transform="translate(0,0)"/>
<path d="" fill="#000000" transform="translate(0,0)"/>
<path d="" fill="#000000" transform="translate(0,0)"/>
<path d="" fill="#000000" transform="translate(0,0)"/>
<path d="" fill="#000000" transform="translate(0,0)"/>
<path d="" fill="#000000" transform="translate(0,0)"/>
<path d="" fill="#000000" transform="translate(0,0)"/>
<path d="" fill="#000000" transform="translate(0,0)"/>
<path d="" fill="#000000" transform="translate(0,0)"/>
<path d="" fill="#000000" transform="translate(0,0)"/>
<path d="" fill="#000000" transform="translate(0,0)"/>
<path d="" fill="#000000" transform="translate(0,0)"/>
<path d="" fill="#000000" transform="translate(0,0)"/>
<path d="" fill="#000000" transform="translate(0,0)"/>
<path d="" fill="#000000" transform="translate(0,0)"/>
<path d="" fill="#000000" transform="translate(0,0)"/>
<path d="" fill="#000000" transform="translate(0,0)"/>
<path d="" fill="#000000" transform="translate(0,0)"/>
<path d="" fill="#000000" transform="translate(0,0)"/>
<path d="" fill="#000000" transform="translate(0,0)"/>
<path d="" fill="#000000" transform="translate(0,0)"/>
<path d="" fill="#000000" transform="translate(0,0)"/>
<path d="" fill="#000000" transform="translate(0,0)"/>
<path d="" fill="#000000" transform="translate(0,0)"/>
<path d="" fill="#000000" transform="translate(0,0)"/>
<path d="" fill="#000000" transform="translate(0,0)"/>
<path d="" fill="#000000" transform="translate(0,0)"/>
<path d="" fill="#000000" transform="translate(0,0)"/>
<path d="" fill="#000000" transform="translate(0,0)"/>
<path d="" fill="#000000" transform="translate(0,0)"/>
<path d="" fill="#000000" transform="translate(0,0)"/>
<path d="" fill="#000000" transform="translate(0,0)"/>
<path d="" fill="#000000" transform="translate(0,0)"/>
<path d="" fill="#000000" transform="translate(0,0)"/>
<path d="" fill="#000000" transform="translate(0,0)"/>
<path d="" fill="#000000" transform="translate(0,0)"/>
<path d="" fill="#000000" transform="translate(0,0)"/>
<path d="" fill="#000000" transform="translate(0,0)"/>
<path d="" fill="#000000" transform="translate(0,0)"/>
<path d="" fill="#000000" transform="translate(0,0)"/>
<path d="" fill="#000000" transform="translate(0,0)"/>
<path d="" fill="#000000" transform="translate(0,0)"/>
<path d="" fill="#000000" transform="translate(0,0)"/>
<path d="" fill="#000000" transform="translate(0,0)"/>
<path d="" fill="#000000" transform="translate(0,0)"/>
<path d="" fill="#000000" transform="translate(0,0)"/>
</svg>
